<?xml version="1.0" encoding="UTF-8"?>
<svg width="449px" height="117px" viewBox="0 0 449 117" version="1.1" xmlns="http://www.w3.org/2000/svg" xmlns:xlink="http://www.w3.org/1999/xlink">
    <title>logo-gray-lockup</title>
    <g id="Logos" stroke="none" stroke-width="1" fill="none" fill-rule="evenodd">
        <g id="logo-gray-lockup" transform="translate(-0.000000, 0.000000)" fill-rule="nonzero">
            <g id="logo-gray-copy" transform="translate(0.000000, 0.000000)">
                <polygon id="Path" fill="#3E4E50" points="131.23 30.13 160 30.13 160 37.3 139.16 37.3 139.16 49 158.8 49 158.8 56.18 139.16 56.18 139.16 74.68 131.23 74.68"></polygon>
                <path d="M190.21,74.69 L183,74.69 L183,69.84 L182.87,69.84 C182.122881,71.4037249 180.999284,72.7575392 179.6,73.78 C177.838258,74.9817436 175.729278,75.5687431 173.6,75.45 C171.83765,75.4934051 170.087017,75.1521512 168.47,74.45 C167.132984,73.855303 165.95711,72.9502573 165.04,71.81 C164.173921,70.6797044 163.550882,69.3825556 163.21,68 C162.826267,66.5411576 162.634648,65.0384573 162.639891,63.53 L162.639891,44.48 L170.2,44.48 L170.2,59.77 C170.2,60.61 170.2,61.55 170.32,62.57 C170.401152,63.5631064 170.623385,64.5395852 170.98,65.47 C171.324033,66.3541998 171.888608,67.1356538 172.62,67.74 C173.519095,68.3961813 174.619001,68.7180188 175.73,68.65 C176.82408,68.6841141 177.911566,68.4686688 178.91,68.02 C179.742731,67.6224857 180.474428,67.0412314 181.05,66.32 C181.627445,65.5949908 182.04646,64.7569618 182.28,63.86 C182.534307,62.9177889 182.662096,61.945925 182.66,60.97 L182.66,44.48 L190.21,44.48 L190.21,74.69 Z" id="Path" fill="#3E4E50"></path>
                <path d="M213.56,52.85 C212.250305,50.874598 210.019565,49.7082723 207.65,49.76 C206.602678,49.7624584 205.57217,50.0235202 204.65,50.52 C203.720261,50.9839172 203.163155,51.9637912 203.24,53 C203.201697,53.8472504 203.674401,54.6350903 204.44,55 C205.391633,55.479987 206.399409,55.8394271 207.44,56.07 C208.66,56.36 209.97,56.67 211.37,56.98 C212.742258,57.2849942 214.067406,57.7726757 215.31,58.43 C216.507152,59.0745397 217.535075,59.9928183 218.31,61.11 C219.173263,62.5016624 219.58863,64.1247349 219.5,65.76 C219.556994,67.3627779 219.154507,68.9484346 218.34,70.33 C217.585074,71.5482411 216.558241,72.5750737 215.34,73.33 C214.044594,74.1043966 212.628173,74.6554148 211.15,74.96 C209.619679,75.2980088 208.057205,75.4690091 206.49,75.47 C204.289696,75.4954093 202.100281,75.1575366 200.01,74.47 C197.956094,73.7402429 196.131266,72.481146 194.72,70.82 L199.72,66.1 C200.621548,67.1400909 201.673103,68.03998 202.84,68.77 C204.070125,69.4840673 205.478954,69.8310696 206.9,69.77 C207.468598,69.768854 208.035342,69.7051372 208.59,69.58 C209.168605,69.4651009 209.723279,69.2520251 210.23,68.95 C210.711996,68.6728064 211.130909,68.2981693 211.46,67.85 C211.775672,67.3993308 211.940232,66.8601337 211.93,66.31 C211.988034,65.3719391 211.527381,64.4775042 210.73,63.98 C209.797731,63.4210969 208.786293,63.0064074 207.73,62.75 C206.52,62.44 205.2,62.15 203.8,61.87 C202.434922,61.6151597 201.112138,61.1708659 199.87,60.55 C198.680381,59.9522685 197.651575,59.0777833 196.87,58 C196.006334,56.6529289 195.589885,55.0676228 195.68,53.47 C195.626908,51.9478937 195.971576,50.4382442 196.68,49.09 C197.349412,47.8812225 198.282505,46.8387558 199.41,46.04 C200.596125,45.2216185 201.920924,44.6252895 203.32,44.28 C204.779816,43.9012972 206.281863,43.709851 207.79,43.709851 C209.832154,43.7017049 211.860923,44.0398331 213.79,44.71 C215.715231,45.3698463 217.386345,46.6144416 218.57,48.27 L213.56,52.85 Z" id="Path" fill="#3E4E50"></path>
                <path d="M222.82,34.22 C222.800597,33.0052399 223.290086,31.8377175 224.17,31 C225.079199,30.0977124 226.319718,29.6094616 227.6,29.65 C228.894219,29.6313076 230.145257,30.1152335 231.09,31 C231.994096,31.8348203 232.508261,33.0094255 232.508261,34.24 C232.508261,35.4705745 231.994096,36.6451797 231.09,37.48 C230.135936,38.3429568 228.885966,38.8049798 227.6,38.77 C226.319718,38.8105384 225.079199,38.3222876 224.17,37.42 C223.297249,36.5856376 222.808602,35.427363 222.82,34.22 Z M223.89,44.48 L231.44,44.48 L231.44,74.69 L223.89,74.69 L223.89,44.48 Z" id="Shape" fill="#3E4E50"></path>
                <path d="M235.66,59.58 C235.646059,57.3401259 236.102574,55.122281 237,53.07 C238.638382,49.2433251 241.793256,46.2695572 245.71,44.86 C249.858554,43.3403867 254.411446,43.3403867 258.56,44.86 C262.476744,46.2695572 265.631618,49.2433251 267.27,53.07 C268.981404,57.2343582 268.981404,61.9056418 267.27,66.07 C265.631618,69.8966749 262.476744,72.8704428 258.56,74.28 C254.411446,75.7996133 249.858554,75.7996133 245.71,74.28 C241.799073,72.8773045 238.64514,69.915287 237,66.1 C236.101202,64.044636 235.644657,61.8232397 235.66,59.58 L235.66,59.58 Z M243.209963,59.58 C243.20679,60.7399469 243.409955,61.8912157 243.81,62.98 C244.1941,64.0559388 244.792888,65.0425785 245.57,65.88 C247.258882,67.6685213 249.610095,68.6821176 252.07,68.6821176 C254.529905,68.6821176 256.881118,67.6685213 258.57,65.88 C259.347112,65.0425785 259.9459,64.0559388 260.33,62.98 C261.129572,60.7872833 261.129572,58.3827167 260.33,56.19 C259.9459,55.1140612 259.347112,54.1274215 258.57,53.29 C256.881118,51.5014787 254.529905,50.4878824 252.07,50.4878824 C249.610095,50.4878824 247.258882,51.5014787 245.57,53.29 C244.792888,54.1274215 244.1941,55.1140612 243.81,56.19 C243.410711,57.2755213 243.207551,58.4233746 243.209963,59.58 Z" id="Shape" fill="#3E4E50"></path>
                <path d="M272.54,44.48 L279.72,44.48 L279.72,49.32 L279.84,49.32 C280.597566,47.7628193 281.723419,46.4138556 283.12,45.39 C284.881102,44.1868805 286.990559,43.5997483 289.12,43.72 C290.883031,43.6683828 292.635436,44.009982 294.25,44.72 C295.577224,45.3310148 296.749622,46.2333852 297.68,47.36 C298.571689,48.4698332 299.212995,49.7592658 299.56,51.14 C299.943733,52.5988424 300.135352,54.1015427 300.130109,55.61 L300.130109,74.69 L292.58,74.69 L292.58,59.4 C292.58,58.56 292.58,57.62 292.45,56.59 C292.377355,55.5988422 292.154825,54.6244316 291.79,53.7 C291.441975,52.8100079 290.866054,52.0271694 290.12,51.43 C289.227913,50.7827517 288.140603,50.4615012 287.04,50.52 C285.94592,50.4858859 284.858434,50.7013312 283.86,51.15 C283.028914,51.5501435 282.297761,52.130966 281.72,52.85 C281.144537,53.5725341 280.725665,54.4068736 280.49,55.3 C280.235859,56.2456512 280.108082,57.2207962 280.11,58.2 L280.11,74.69 L272.56,74.69 L272.54,44.48 Z" id="Path" fill="#3E4E50"></path>
                <path d="M322.46,30.13 L329.32,30.13 L348.52,74.69 L339.45,74.69 L335.3,64.49 L316,64.49 L312,74.69 L303.13,74.69 L322.46,30.13 Z M332.53,57.7 L325.67,39.57 L318.67,57.7 L332.53,57.7 Z" id="Shape" fill="#F58320"></path>
                <path d="M377.28,74.69 L370.1,74.69 L370.1,69.84 L370,69.84 C369.246281,71.3994911 368.123907,72.7518321 366.73,73.78 C364.967621,74.9803736 362.859115,75.5672413 360.73,75.45 C358.96765,75.4934051 357.217017,75.1521512 355.6,74.45 C354.262984,73.855303 353.08711,72.9502573 352.17,71.81 C351.274097,70.6902116 350.629521,69.3908284 350.28,68 C349.896267,66.5411576 349.704648,65.0384573 349.709891,63.53 L349.709891,44.48 L357.26,44.48 L357.26,59.77 C357.26,60.61 357.26,61.55 357.39,62.57 C357.461489,63.5645689 357.684041,64.5424483 358.05,65.47 C358.394033,66.3541998 358.958608,67.1356538 359.69,67.74 C360.589095,68.3961813 361.689001,68.7180188 362.8,68.65 C363.902339,68.6809051 364.997079,68.4585362 366,68 C366.832731,67.6024857 367.564428,67.0212314 368.14,66.3 C368.717445,65.5749908 369.13646,64.7369618 369.37,63.84 C369.624307,62.8977889 369.752096,61.925925 369.75,60.95 L369.75,44.48 L377.3,44.48 L377.28,74.69 Z" id="Path" fill="#F58320"></path>
                <path d="M379.86,50.9 L379.86,44.48 L386.09,44.48 L386.09,35.73 L393.65,35.73 L393.65,44.48 L402,44.48 L402,50.9 L393.7,50.9 L393.7,64.12 C393.635749,65.3687639 393.927021,66.6101391 394.54,67.7 C395.11,68.59 396.23,69.03 397.91,69.03 C398.651594,69.0198423 399.390958,68.9462404 400.12,68.81 C400.793036,68.7090507 401.435202,68.4596992 402,68.08 L402,74.44 C401.074193,74.8550421 400.08878,75.1216434 399.08,75.23 C398.065219,75.3634999 397.043441,75.4369611 396.02,75.45 C394.348503,75.4980855 392.680248,75.2752012 391.08,74.79 C389.914675,74.4127928 388.876393,73.7206053 388.08,72.79 C387.308319,71.8072537 386.789799,70.6500287 386.57,69.42 C386.280712,67.8872596 386.14338,66.3297129 386.16,64.77 L386.16,50.9 L379.86,50.9 Z" id="Path" fill="#F58320"></path>
                <path d="M413,48.69 L413.13,48.69 C413.841915,47.2895598 414.91575,46.1052329 416.24,45.26 C417.95874,44.1729107 419.968074,43.635693 422,43.72 C423.763196,43.6663576 425.516043,44.0080431 427.13,44.72 C428.458847,45.328327 429.631805,46.2311284 430.56,47.36 C431.452095,48.4709673 432.096483,49.7597437 432.45,51.14 C432.833733,52.5988424 433.025352,54.1015427 433.020109,55.61 L433.020109,74.69 L425.46,74.69 L425.46,59.4 C425.46,58.56 425.46,57.62 425.34,56.59 C425.257778,55.6003022 425.035563,54.6272739 424.68,53.7 C424.325499,52.8109096 423.746694,52.0288329 423,51.43 C422.107189,50.7842227 421.020411,50.4631292 419.92,50.52 C418.82592,50.4858859 417.738434,50.7013312 416.74,51.15 C415.907269,51.5475143 415.175572,52.1287686 414.6,52.85 C414.024537,53.5725341 413.605665,54.4068736 413.37,55.3 C413.115859,56.2456512 412.988082,57.2207962 412.99,58.2 L412.99,74.69 L405.44,74.69 L405.44,27.1 L413,27.1 L413,48.69 Z" id="Path" fill="#F58320"></path>
                <path d="M27.75,90.64 C24.1518121,88.5720361 20.8684559,85.9992319 18,83 C17.1680799,84.0434745 16.1511233,84.9248369 15,85.6 C14.3641916,85.9589838 13.6942205,86.2537711 13,86.48 C28.5194199,103.427264 53.6683063,107.450257 73.7,96.19 C74.6472172,95.646126 75.2312917,94.6372542 75.2312917,93.545 C75.2312917,92.4527458 74.6472172,91.443874 73.7,90.9 L73.7,90.9 C72.7807529,90.348546 71.6371133,90.3294853 70.7,90.85 C57.3550266,98.3858463 41.0206455,98.3059809 27.75,90.64 Z" id="Path" fill="#3E4E50"></path>
                <path d="M27.74,15.68 C31.3393393,13.6040753 35.2192854,12.0581593 39.26,11.09 C38.75791,9.81616965 38.5000878,8.45921075 38.5,7.09 C38.501879,6.35127071 38.5755588,5.61447306 38.72,4.89 C16.2907761,9.87040455 0.248367013,29.6458226 0,52.62 C0.00357688908,53.7114391 0.588222547,54.7183478 1.53433621,55.2625177 C2.48044987,55.8066877 3.64478436,55.8057283 4.59,55.26 L4.59,55.26 C5.51807868,54.7385612 6.100322,53.7643502 6.12,52.7 C6.2835235,37.4079122 14.5015237,23.3362024 27.74,15.68 Z" id="Path" fill="#3E4E50"></path>
                <path d="M92.65,53.16 C92.6486095,57.3142307 92.0491265,61.4466226 90.87,65.43 C92.2147119,65.627096 93.5104801,66.0748484 94.69,66.75 C95.3229403,67.1121515 95.922021,67.5305039 96.48,68 C103.363914,46.0851213 94.2503865,22.3153838 74.48,10.62 C73.5331142,10.1239424 72.3960041,10.157961 71.480466,10.7097362 C70.5649279,11.2615113 70.0036898,12.2510509 69.9998356,13.32 L69.9998356,13.32 C69.9889018,14.3822662 70.5404173,15.3711905 71.45,15.92 C84.5957533,23.7199312 92.6536109,37.8743942 92.65,53.16 Z" id="Path" fill="#3E4E50"></path>
                <path d="M49.39,32.5799976 C57.7147418,32.5759549 65.2220251,37.5875455 68.4105692,45.2774434 C71.5991132,52.9673413 69.8408449,61.8208059 63.9557935,67.7087183 C58.0707421,73.5966307 49.2181331,75.3592018 41.5266864,72.1743956 C33.8352397,68.9895895 28.82,61.4847428 28.82,53.16 C28.8310147,41.8024485 38.0324552,32.5965348 49.39,32.5799976 M49.39,26.4699981 C34.64952,26.4699981 22.7,38.41952 22.7,53.16 C22.7,67.90048 34.64952,79.85 49.39,79.85 C64.13048,79.85 76.0800019,67.90048 76.0800019,53.16 C76.082654,46.0805586 73.2715322,39.2903106 68.2656108,34.2843892 C63.2596894,29.2784678 56.4694414,26.467346 49.39,26.4699981 Z" id="Shape" fill="#3E4E50"></path>
                <circle id="Oval" fill="#F58320" cx="49.38" cy="7.12" r="7.12"></circle>
                <circle id="Oval" fill="#F58320" cx="9.51" cy="76.17" r="7.12"></circle>
                <circle id="Oval" fill="#F58320" cx="89.25" cy="76.17" r="7.12"></circle>
                <path d="M55.2900357,48.29 C55.2939373,45.4185057 53.2299714,42.9611811 50.4009407,42.4691646 C47.57191,41.9771481 44.7994899,43.593343 43.8337167,46.2975577 C42.8679435,49.0017724 43.9893204,52.0085835 46.49,53.42 L44.63,62.85 C44.5691634,63.1477192 44.646999,63.4569489 44.8415328,63.6903894 C45.0360665,63.9238298 45.3261909,64.0561522 45.63,64.0502054 L53.2,64.0502054 C53.5038091,64.0561522 53.7939335,63.9238298 53.9884672,63.6903894 C54.183001,63.4569489 54.2608366,63.1477192 54.2,62.85 L52.33,53.42 C54.1671852,52.3665027 55.2973563,50.4077941 55.2900357,48.29 L55.2900357,48.29 Z" id="Path" fill="#F58320"></path>
            </g>
            <g id="Auth.-Built-for-Devs-Copy-3" transform="translate(116.351036, 95.473000)" fill="#3E4E50">
                <path d="M11.613,13.377 L4.788,13.377 L3.486,16.527 L0,16.527 L6.552,1.827 L9.912,1.827 L16.485,16.527 L12.915,16.527 L11.613,13.377 Z M10.542,10.794 L8.211,5.166 L5.88,10.794 L10.542,10.794 Z" id="Shape"></path>
                <path d="M29.4352309,5.229 L29.4352309,16.527 L26.3272309,16.527 L26.3272309,15.183 C25.8932309,15.673 25.3752309,16.0475 24.7732309,16.3065 C24.1712309,16.5655 23.5202309,16.695 22.8202309,16.695 C21.3362309,16.695 20.1602309,16.268 19.2922309,15.414 C18.4242309,14.56 17.9902309,13.293 17.9902309,11.613 L17.9902309,5.229 L21.2662309,5.229 L21.2662309,11.13 C21.2662309,12.95 22.0292309,13.86 23.5552309,13.86 C24.3392309,13.86 24.9692309,13.6045 25.4452309,13.0935 C25.9212309,12.5825 26.1592309,11.823 26.1592309,10.815 L26.1592309,5.229 L29.4352309,5.229 Z" id="Path"></path>
                <path d="M40.2434618,15.981 C39.9214618,16.219 39.5259618,16.3975 39.0569618,16.5165 C38.5879618,16.6355 38.0944618,16.695 37.5764618,16.695 C36.2324618,16.695 35.1929618,16.352 34.4579618,15.666 C33.7229618,14.98 33.3554618,13.972 33.3554618,12.642 L33.3554618,8.001 L31.6124618,8.001 L31.6124618,5.481 L33.3554618,5.481 L33.3554618,2.73 L36.6314618,2.73 L36.6314618,5.481 L39.4454618,5.481 L39.4454618,8.001 L36.6314618,8.001 L36.6314618,12.6 C36.6314618,13.076 36.7539618,13.4435 36.9989618,13.7025 C37.2439618,13.9615 37.5904618,14.091 38.0384618,14.091 C38.5564618,14.091 38.9974618,13.951 39.3614618,13.671 L40.2434618,15.981 Z" id="Path"></path>
                <path d="M49.4346927,5.061 C50.8346927,5.061 51.9651927,5.481 52.8261927,6.321 C53.6871927,7.161 54.1176927,8.407 54.1176927,10.059 L54.1176927,16.527 L50.8416927,16.527 L50.8416927,10.563 C50.8416927,9.667 50.6456927,8.9985 50.2536927,8.5575 C49.8616927,8.1165 49.2946927,7.896 48.5526927,7.896 C47.7266927,7.896 47.0686927,8.1515 46.5786927,8.6625 C46.0886927,9.1735 45.8436927,9.933 45.8436927,10.941 L45.8436927,16.527 L42.5676927,16.527 L42.5676927,0.945 L45.8436927,0.945 L45.8436927,6.405 C46.2776927,5.971 46.8026927,5.6385 47.4186927,5.4075 C48.0346927,5.1765 48.7066927,5.061 49.4346927,5.061 Z" id="Path"></path>
                <path d="M58.7939237,16.695 C58.2199237,16.695 57.7369237,16.499 57.3449237,16.107 C56.9529237,15.715 56.7569237,15.225 56.7569237,14.637 C56.7569237,14.035 56.9529237,13.5485 57.3449237,13.1775 C57.7369237,12.8065 58.2199237,12.621 58.7939237,12.621 C59.3679237,12.621 59.8509237,12.8065 60.2429237,13.1775 C60.6349237,13.5485 60.8309237,14.035 60.8309237,14.637 C60.8309237,15.225 60.6349237,15.715 60.2429237,16.107 C59.8509237,16.499 59.3679237,16.695 58.7939237,16.695 Z" id="Path"></path>
                <path d="M80.9773855,8.883 C81.8173855,9.149 82.4753855,9.5935 82.9513855,10.2165 C83.4273855,10.8395 83.6653855,11.606 83.6653855,12.516 C83.6653855,13.804 83.1648855,14.7945 82.1638855,15.4875 C81.1628855,16.1805 79.7033855,16.527 77.7853855,16.527 L70.1833855,16.527 L70.1833855,1.827 L77.3653855,1.827 C79.1573855,1.827 80.5328855,2.17 81.4918855,2.856 C82.4508855,3.542 82.9303855,4.473 82.9303855,5.649 C82.9303855,6.363 82.7588855,7 82.4158855,7.56 C82.0728855,8.12 81.5933855,8.561 80.9773855,8.883 Z M73.5643855,4.389 L73.5643855,7.854 L76.9453855,7.854 C77.7853855,7.854 78.4223855,7.707 78.8563855,7.413 C79.2903855,7.119 79.5073855,6.685 79.5073855,6.111 C79.5073855,5.537 79.2903855,5.1065 78.8563855,4.8195 C78.4223855,4.5325 77.7853855,4.389 76.9453855,4.389 L73.5643855,4.389 Z M77.5333855,13.965 C78.4293855,13.965 79.1048855,13.818 79.5598855,13.524 C80.0148855,13.23 80.2423855,12.775 80.2423855,12.159 C80.2423855,10.941 79.3393855,10.332 77.5333855,10.332 L73.5643855,10.332 L73.5643855,13.965 L77.5333855,13.965 Z" id="Shape"></path>
                <path d="M97.8756164,5.229 L97.8756164,16.527 L94.7676164,16.527 L94.7676164,15.183 C94.3336164,15.673 93.8156164,16.0475 93.2136164,16.3065 C92.6116164,16.5655 91.9606164,16.695 91.2606164,16.695 C89.7766164,16.695 88.6006164,16.268 87.7326164,15.414 C86.8646164,14.56 86.4306164,13.293 86.4306164,11.613 L86.4306164,5.229 L89.7066164,5.229 L89.7066164,11.13 C89.7066164,12.95 90.4696164,13.86 91.9956164,13.86 C92.7796164,13.86 93.4096164,13.6045 93.8856164,13.0935 C94.3616164,12.5825 94.5996164,11.823 94.5996164,10.815 L94.5996164,5.229 L97.8756164,5.229 Z" id="Path"></path>
                <path d="M101.396847,5.229 L104.672847,5.229 L104.672847,16.527 L101.396847,16.527 L101.396847,5.229 Z M103.034847,3.654 C102.432847,3.654 101.942847,3.479 101.564847,3.129 C101.186847,2.779 100.997847,2.345 100.997847,1.827 C100.997847,1.309 101.186847,0.875 101.564847,0.525 C101.942847,0.175 102.432847,0 103.034847,0 C103.636847,0 104.126847,0.168 104.504847,0.504 C104.882847,0.84 105.071847,1.26 105.071847,1.764 C105.071847,2.31 104.882847,2.7615 104.504847,3.1185 C104.126847,3.4755 103.636847,3.654 103.034847,3.654 Z" id="Shape"></path>
                <polygon id="Path" points="108.194078 0.945 111.470078 0.945 111.470078 16.527 108.194078 16.527"></polygon>
                <path d="M123.097309,15.981 C122.775309,16.219 122.379809,16.3975 121.910809,16.5165 C121.441809,16.6355 120.948309,16.695 120.430309,16.695 C119.086309,16.695 118.046809,16.352 117.311809,15.666 C116.576809,14.98 116.209309,13.972 116.209309,12.642 L116.209309,8.001 L114.466309,8.001 L114.466309,5.481 L116.209309,5.481 L116.209309,2.73 L119.485309,2.73 L119.485309,5.481 L122.299309,5.481 L122.299309,8.001 L119.485309,8.001 L119.485309,12.6 C119.485309,13.076 119.607809,13.4435 119.852809,13.7025 C120.097809,13.9615 120.444309,14.091 120.892309,14.091 C121.410309,14.091 121.851309,13.951 122.215309,13.671 L123.097309,15.981 Z" id="Path"></path>
                <path d="M135.431771,5.481 L138.329771,5.481 L138.329771,8.001 L135.515771,8.001 L135.515771,16.527 L132.239771,16.527 L132.239771,8.001 L130.496771,8.001 L130.496771,5.481 L132.239771,5.481 L132.239771,4.977 C132.239771,3.689 132.621271,2.667 133.384271,1.911 C134.147271,1.155 135.221771,0.777 136.607771,0.777 C137.097771,0.777 137.563271,0.8295 138.004271,0.9345 C138.445271,1.0395 138.812771,1.19 139.106771,1.386 L138.245771,3.759 C137.867771,3.493 137.426771,3.36 136.922771,3.36 C135.928771,3.36 135.431771,3.906 135.431771,4.998 L135.431771,5.481 Z" id="Path"></path>
                <path d="M145.673002,16.695 C144.483002,16.695 143.415502,16.4465 142.470502,15.9495 C141.525502,15.4525 140.787002,14.763 140.255002,13.881 C139.723002,12.999 139.457002,11.998 139.457002,10.878 C139.457002,9.758 139.723002,8.757 140.255002,7.875 C140.787002,6.993 141.525502,6.3035 142.470502,5.8065 C143.415502,5.3095 144.483002,5.061 145.673002,5.061 C146.863002,5.061 147.927002,5.3095 148.865002,5.8065 C149.803002,6.3035 150.538002,6.993 151.070002,7.875 C151.602002,8.757 151.868002,9.758 151.868002,10.878 C151.868002,11.998 151.602002,12.999 151.070002,13.881 C150.538002,14.763 149.803002,15.4525 148.865002,15.9495 C147.927002,16.4465 146.863002,16.695 145.673002,16.695 Z M145.673002,14.007 C146.513002,14.007 147.202502,13.7235 147.741502,13.1565 C148.280502,12.5895 148.550002,11.83 148.550002,10.878 C148.550002,9.926 148.280502,9.1665 147.741502,8.5995 C147.202502,8.0325 146.513002,7.749 145.673002,7.749 C144.833002,7.749 144.140002,8.0325 143.594002,8.5995 C143.048002,9.1665 142.775002,9.926 142.775002,10.878 C142.775002,11.83 143.048002,12.5895 143.594002,13.1565 C144.140002,13.7235 144.833002,14.007 145.673002,14.007 Z" id="Shape"></path>
                <path d="M157.657233,6.72 C158.049233,6.174 158.577733,5.761 159.242733,5.481 C159.907733,5.201 160.674233,5.061 161.542233,5.061 L161.542233,8.085 C161.178233,8.057 160.933233,8.043 160.807233,8.043 C159.869233,8.043 159.134233,8.3055 158.602233,8.8305 C158.070233,9.3555 157.804233,10.143 157.804233,11.193 L157.804233,16.527 L154.528233,16.527 L154.528233,5.229 L157.657233,5.229 L157.657233,6.72 Z" id="Path"></path>
                <path d="M170.705695,1.827 L177.383695,1.827 C178.979695,1.827 180.390195,2.1315 181.615195,2.7405 C182.840195,3.3495 183.792195,4.207 184.471195,5.313 C185.150195,6.419 185.489695,7.707 185.489695,9.177 C185.489695,10.647 185.150195,11.935 184.471195,13.041 C183.792195,14.147 182.840195,15.0045 181.615195,15.6135 C180.390195,16.2225 178.979695,16.527 177.383695,16.527 L170.705695,16.527 L170.705695,1.827 Z M177.215695,13.734 C178.685695,13.734 179.858195,13.3245 180.733195,12.5055 C181.608195,11.6865 182.045695,10.577 182.045695,9.177 C182.045695,7.777 181.608195,6.6675 180.733195,5.8485 C179.858195,5.0295 178.685695,4.62 177.215695,4.62 L174.107695,4.62 L174.107695,13.734 L177.215695,13.734 Z" id="Shape"></path>
                <path d="M199.363926,10.92 C199.363926,10.962 199.342926,11.256 199.300926,11.802 L190.753926,11.802 C190.907926,12.502 191.271926,13.055 191.845926,13.461 C192.419926,13.867 193.133926,14.07 193.987926,14.07 C194.575926,14.07 195.097426,13.9825 195.552426,13.8075 C196.007426,13.6325 196.430926,13.356 196.822926,12.978 L198.565926,14.868 C197.501926,16.086 195.947926,16.695 193.903926,16.695 C192.629926,16.695 191.502926,16.4465 190.522926,15.9495 C189.542926,15.4525 188.786926,14.763 188.254926,13.881 C187.722926,12.999 187.456926,11.998 187.456926,10.878 C187.456926,9.772 187.719426,8.7745 188.244426,7.8855 C188.769426,6.9965 189.490426,6.3035 190.407426,5.8065 C191.324426,5.3095 192.349926,5.061 193.483926,5.061 C194.589926,5.061 195.590926,5.299 196.486926,5.775 C197.382926,6.251 198.086426,6.9335 198.597426,7.8225 C199.108426,8.7115 199.363926,9.744 199.363926,10.92 Z M193.504926,7.539 C192.762926,7.539 192.139926,7.749 191.635926,8.169 C191.131926,8.589 190.823926,9.163 190.711926,9.891 L196.276926,9.891 C196.164926,9.177 195.856926,8.6065 195.352926,8.1795 C194.848926,7.7525 194.232926,7.539 193.504926,7.539 Z" id="Shape"></path>
                <polygon id="Path" points="213.028156 5.229 208.261156 16.527 204.880156 16.527 200.134156 5.229 203.515156 5.229 206.644156 12.915 209.878156 5.229"></polygon>
                <path d="M218.481387,16.695 C217.543387,16.695 216.626387,16.5795 215.730387,16.3485 C214.834387,16.1175 214.120387,15.827 213.588387,15.477 L214.680387,13.125 C215.184387,13.447 215.793387,13.7095 216.507387,13.9125 C217.221387,14.1155 217.921387,14.217 218.607387,14.217 C219.993387,14.217 220.686387,13.874 220.686387,13.188 C220.686387,12.866 220.497387,12.635 220.119387,12.495 C219.741387,12.355 219.160387,12.236 218.376387,12.138 C217.452387,11.998 216.689387,11.837 216.087387,11.655 C215.485387,11.473 214.963887,11.151 214.522887,10.689 C214.081887,10.227 213.861387,9.569 213.861387,8.715 C213.861387,8.001 214.067887,7.3675 214.480887,6.8145 C214.893887,6.2615 215.495887,5.831 216.286887,5.523 C217.077887,5.215 218.012387,5.061 219.090387,5.061 C219.888387,5.061 220.682887,5.1485 221.473887,5.3235 C222.264887,5.4985 222.919387,5.74 223.437387,6.048 L222.345387,8.379 C221.351387,7.819 220.266387,7.539 219.090387,7.539 C218.390387,7.539 217.865387,7.637 217.515387,7.833 C217.165387,8.029 216.990387,8.281 216.990387,8.589 C216.990387,8.939 217.179387,9.184 217.557387,9.324 C217.935387,9.464 218.537387,9.597 219.363387,9.723 C220.287387,9.877 221.043387,10.0415 221.631387,10.2165 C222.219387,10.3915 222.730387,10.71 223.164387,11.172 C223.598387,11.634 223.815387,12.278 223.815387,13.104 C223.815387,13.804 223.605387,14.427 223.185387,14.973 C222.765387,15.519 222.152887,15.9425 221.347887,16.2435 C220.542887,16.5445 219.587387,16.695 218.481387,16.695 Z" id="Path"></path>
                <path d="M227.567618,12.621 C228.155618,12.621 228.638618,12.8065 229.016618,13.1775 C229.394618,13.5485 229.583618,14.035 229.583618,14.637 C229.583618,14.917 229.548618,15.197 229.478618,15.477 C229.408618,15.757 229.254618,16.177 229.016618,16.737 L227.819618,19.761 L225.740618,19.761 L226.664618,16.422 C226.314618,16.282 226.038118,16.0545 225.835118,15.7395 C225.632118,15.4245 225.530618,15.057 225.530618,14.637 C225.530618,14.035 225.723118,13.5485 226.108118,13.1775 C226.493118,12.8065 226.979618,12.621 227.567618,12.621 Z" id="Path"></path>
                <path d="M245.38308,5.061 C246.43308,5.061 247.38858,5.3025 248.24958,5.7855 C249.11058,6.2685 249.78608,6.9475 250.27608,7.8225 C250.76608,8.6975 251.01108,9.716 251.01108,10.878 C251.01108,12.04 250.76608,13.0585 250.27608,13.9335 C249.78608,14.8085 249.11058,15.4875 248.24958,15.9705 C247.38858,16.4535 246.43308,16.695 245.38308,16.695 C243.82908,16.695 242.64608,16.205 241.83408,15.225 L241.83408,16.527 L238.70508,16.527 L238.70508,0.945 L241.98108,0.945 L241.98108,6.426 C242.80708,5.516 243.94108,5.061 245.38308,5.061 Z M244.81608,14.007 C245.65608,14.007 246.34558,13.7235 246.88458,13.1565 C247.42358,12.5895 247.69308,11.83 247.69308,10.878 C247.69308,9.926 247.42358,9.1665 246.88458,8.5995 C246.34558,8.0325 245.65608,7.749 244.81608,7.749 C243.97608,7.749 243.28658,8.0325 242.74758,8.5995 C242.20858,9.1665 241.93908,9.926 241.93908,10.878 C241.93908,11.83 242.20858,12.5895 242.74758,13.1565 C243.28658,13.7235 243.97608,14.007 244.81608,14.007 Z" id="Shape"></path>
                <path d="M264.570311,5.229 L259.467311,17.22 C258.949311,18.522 258.308811,19.439 257.545811,19.971 C256.782811,20.503 255.862311,20.769 254.784311,20.769 C254.196311,20.769 253.615311,20.678 253.041311,20.496 C252.467311,20.314 251.998311,20.062 251.634311,19.74 L252.831311,17.409 C253.083311,17.633 253.373811,17.808 253.702811,17.934 C254.031811,18.06 254.357311,18.123 254.679311,18.123 C255.127311,18.123 255.491311,18.0145 255.771311,17.7975 C256.051311,17.5805 256.303311,17.22 256.527311,16.716 L256.569311,16.611 L251.676311,5.229 L255.057311,5.229 L258.228311,12.894 L261.420311,5.229 L264.570311,5.229 Z" id="Path"></path>
                <path d="M273.040773,1.827 L279.718773,1.827 C281.314773,1.827 282.725273,2.1315 283.950273,2.7405 C285.175273,3.3495 286.127273,4.207 286.806273,5.313 C287.485273,6.419 287.824773,7.707 287.824773,9.177 C287.824773,10.647 287.485273,11.935 286.806273,13.041 C286.127273,14.147 285.175273,15.0045 283.950273,15.6135 C282.725273,16.2225 281.314773,16.527 279.718773,16.527 L273.040773,16.527 L273.040773,1.827 Z M279.550773,13.734 C281.020773,13.734 282.193273,13.3245 283.068273,12.5055 C283.943273,11.6865 284.380773,10.577 284.380773,9.177 C284.380773,7.777 283.943273,6.6675 283.068273,5.8485 C282.193273,5.0295 281.020773,4.62 279.550773,4.62 L276.442773,4.62 L276.442773,13.734 L279.550773,13.734 Z" id="Shape"></path>
                <path d="M301.699004,10.92 C301.699004,10.962 301.678004,11.256 301.636004,11.802 L293.089004,11.802 C293.243004,12.502 293.607004,13.055 294.181004,13.461 C294.755004,13.867 295.469004,14.07 296.323004,14.07 C296.911004,14.07 297.432504,13.9825 297.887504,13.8075 C298.342504,13.6325 298.766004,13.356 299.158004,12.978 L300.901004,14.868 C299.837004,16.086 298.283004,16.695 296.239004,16.695 C294.965004,16.695 293.838004,16.4465 292.858004,15.9495 C291.878004,15.4525 291.122004,14.763 290.590004,13.881 C290.058004,12.999 289.792004,11.998 289.792004,10.878 C289.792004,9.772 290.054504,8.7745 290.579504,7.8855 C291.104504,6.9965 291.825504,6.3035 292.742504,5.8065 C293.659504,5.3095 294.685004,5.061 295.819004,5.061 C296.925004,5.061 297.926004,5.299 298.822004,5.775 C299.718004,6.251 300.421504,6.9335 300.932504,7.8225 C301.443504,8.7115 301.699004,9.744 301.699004,10.92 Z M295.840004,7.539 C295.098004,7.539 294.475004,7.749 293.971004,8.169 C293.467004,8.589 293.159004,9.163 293.047004,9.891 L298.612004,9.891 C298.500004,9.177 298.192004,8.6065 297.688004,8.1795 C297.184004,7.7525 296.568004,7.539 295.840004,7.539 Z" id="Shape"></path>
                <polygon id="Path" points="315.363235 5.229 310.596235 16.527 307.215235 16.527 302.469235 5.229 305.850235 5.229 308.979235 12.915 312.213235 5.229"></polygon>
                <path d="M320.816466,16.695 C319.878466,16.695 318.961466,16.5795 318.065466,16.3485 C317.169466,16.1175 316.455466,15.827 315.923466,15.477 L317.015466,13.125 C317.519466,13.447 318.128466,13.7095 318.842466,13.9125 C319.556466,14.1155 320.256466,14.217 320.942466,14.217 C322.328466,14.217 323.021466,13.874 323.021466,13.188 C323.021466,12.866 322.832466,12.635 322.454466,12.495 C322.076466,12.355 321.495466,12.236 320.711466,12.138 C319.787466,11.998 319.024466,11.837 318.422466,11.655 C317.820466,11.473 317.298966,11.151 316.857966,10.689 C316.416966,10.227 316.196466,9.569 316.196466,8.715 C316.196466,8.001 316.402966,7.3675 316.815966,6.8145 C317.228966,6.2615 317.830966,5.831 318.621966,5.523 C319.412966,5.215 320.347466,5.061 321.425466,5.061 C322.223466,5.061 323.017966,5.1485 323.808966,5.3235 C324.599966,5.4985 325.254466,5.74 325.772466,6.048 L324.680466,8.379 C323.686466,7.819 322.601466,7.539 321.425466,7.539 C320.725466,7.539 320.200466,7.637 319.850466,7.833 C319.500466,8.029 319.325466,8.281 319.325466,8.589 C319.325466,8.939 319.514466,9.184 319.892466,9.324 C320.270466,9.464 320.872466,9.597 321.698466,9.723 C322.622466,9.877 323.378466,10.0415 323.966466,10.2165 C324.554466,10.3915 325.065466,10.71 325.499466,11.172 C325.933466,11.634 326.150466,12.278 326.150466,13.104 C326.150466,13.804 325.940466,14.427 325.520466,14.973 C325.100466,15.519 324.487966,15.9425 323.682966,16.2435 C322.877966,16.5445 321.922466,16.695 320.816466,16.695 Z" id="Path"></path>
                <path d="M329.881697,16.695 C329.307697,16.695 328.824697,16.499 328.432697,16.107 C328.040697,15.715 327.844697,15.225 327.844697,14.637 C327.844697,14.035 328.040697,13.5485 328.432697,13.1775 C328.824697,12.8065 329.307697,12.621 329.881697,12.621 C330.455697,12.621 330.938697,12.8065 331.330697,13.1775 C331.722697,13.5485 331.918697,14.035 331.918697,14.637 C331.918697,15.225 331.722697,15.715 331.330697,16.107 C330.938697,16.499 330.455697,16.695 329.881697,16.695 Z" id="Path"></path>
            </g>
        </g>
    </g>
</svg>